<svg xmlns="http://www.w3.org/2000/svg"  viewBox="0 0 80 80" width="40px" height="40px"><path fill="#c2e8ff" d="M2.5 10.5H69.5V77.5H2.5z"/><path fill="#7496c4" d="M69,11v66H3V11H69 M70,10H2v68h68V10L70,10z"/><path fill="#c2e8ff" d="M61.222 28.222H74.111V32.889H61.222z" transform="rotate(90 67.667 30.556)"/><path fill="#c2e8ff" d="M44 10H56.888999999999996V14.667H44z"/><g><path fill="#8bb7f0" d="M36.707 32L56.707 12 47.207 2.5 77.5 2.5 77.5 32.793 68 23.293 48 43.293z"/><path fill="#4e7ab5" d="M77,3v28.586l-8.293-8.293L68,22.586l-0.707,0.707L48,42.586L37.414,32l19.293-19.293L57.414,12 l-0.707-0.707L48.414,3H77 M78,2H46l10,10L36,32l12,12l20-20l10,10V2L78,2z"/></g></svg>